<svg xmlns:dc="http://purl.org/dc/elements/1.1/" xmlns:cc="http://creativecommons.org/ns#" xmlns:rdf="http://www.w3.org/1999/02/22-rdf-syntax-ns#" xmlns:svg="http://www.w3.org/2000/svg" xmlns="http://www.w3.org/2000/svg" xmlns:sodipodi="http://sodipodi.sourceforge.net/DTD/sodipodi-0.dtd" xmlns:inkscape="http://www.inkscape.org/namespaces/inkscape" version="1.1" x="0px" y="0px" viewBox="0 0 100 100"><g transform="translate(0,-952.36218)"><path style="font-size:medium;font-style:normal;font-variant:normal;font-weight:normal;font-stretch:normal;text-indent:0;text-align:start;text-decoration:none;line-height:normal;letter-spacing:normal;word-spacing:normal;text-transform:none;direction:ltr;block-progression:tb;writing-mode:lr-tb;text-anchor:start;baseline-shift:baseline;opacity:1;color:#000000;fill:#000000;fill-opacity:1;stroke:none;stroke-width:4.33333302000000040;marker:none;visibility:visible;display:inline;overflow:visible;enable-background:accumulate;font-family:Sans;-inkscape-font-specification:Sans" d="M 88.75 8.96875 A 2.0001999 2.0001999 0 0 0 87.59375 9.5625 L 9.59375 87.5625 A 2.0001999 2.0001999 0 1 0 12.40625 90.40625 L 90.40625 12.40625 A 2.0001999 2.0001999 0 0 0 88.75 8.96875 z M 27 13 C 19.291703 13 13 19.29171 13 27 C 13 34.7083 19.291703 41 27 41 C 34.708297 41 41 34.7083 41 27 C 41 19.29171 34.708297 13 27 13 z M 27 17 C 32.546537 17 37 21.45347 37 27 C 37 32.54654 32.546537 37 27 37 C 21.453463 37 17 32.54654 17 27 C 17 21.45347 21.453463 17 27 17 z M 73 59 C 65.291703 59 59 65.2917 59 73 C 59 80.7083 65.291703 87 73 87 C 80.708297 87 87 80.7083 87 73 C 87 65.2917 80.708297 59 73 59 z M 73 63 C 78.546537 63 83 67.4534 83 73 C 83 78.5465 78.546537 83 73 83 C 67.453463 83 63 78.5465 63 73 C 63 67.4534 67.453463 63 73 63 z " transform="translate(0,952.36218)"/></g></svg>