<svg id="Layer_1" data-name="Layer 1" xmlns="http://www.w3.org/2000/svg" width="240" height="420" viewBox="0 0 240 420"><defs><style>.cls-1{fill:#f9efe6;}.cls-2{fill:#261813;}.cls-3{fill:#fce9c9;}</style></defs><path class="cls-1" d="M118.83,405.54c-13.24,0-26.49.08-39.73,0-11.7-.09-17.35-5.58-18.35-17-4.43-50.67-9.38-101.3-13.22-152-1.12-14.83-3.69-28.86-9.24-42.62a67.79,67.79,0,0,1-2.83-43.23c4.69-17.59,1.42-34.83.37-52.23-.21-3.45-.5-6.89-.89-10.31s.7-5.49,4.63-5.37c1.36,0,3.23-.22,4.06-1.1,13.77-14.75,28.92-7.83,43.72-2.62a66.8,66.8,0,0,0,22.8,3.84c27.92-.09,55.86.37,83.77-.26,8.68-.19,10.23,3,9.11,10.32-.78,5.11-.81,10.34-1.67,15.43-2.8,16.43-1.09,32.64,2.15,48.75a61.56,61.56,0,0,1-4.23,38c-7.69,16.8-8.18,34.53-9.81,52.17-3.59,38.91-6.77,77.86-10.1,116.79-.71,8.31-1.46,16.61-2.06,24.92-.75,10.39-6.58,16.31-17,16.46C146.47,405.68,132.65,405.53,118.83,405.54Zm11.36-267.87v.24c-19.58,0-39.16.13-58.74-.07-6-.07-8.37,1.9-7.33,8.16.84,5.08.78,10.32,1,15.49.09,2.38-.29,5-3.32,5.13-2.81.12-3.91-2.19-4.23-4.59-.75-5.71-1.44-11.43-1.93-17.16-.32-3.8-1.05-6.81-5.83-6.8-4.21,0-7.57,1.21-8.24,5.79-1.72,11.64-3.89,23.14-2,35.14,2.92,18.1,11.89,34.32,12.7,53.38,1.61,38.17,6.26,76.21,9.33,114.33,1.27,15.71,9,22.49,24.52,19.41,7.37-1.47,14.67-2.85,22.19-2.88,14.94-.05,29.79-.61,44.61,3.05,13.27,3.28,22.34-2.9,23.37-14.67,2.66-30.66,4.44-61.4,7.66-92,2-18.51.14-37.78,7.35-55.35,7.68-18.73,10.47-37.38,6.39-57.33-1.36-6.65-3.62-9.46-10.5-9.37C168.19,137.85,149.19,137.67,130.19,137.67Z"/><path class="cls-2" d="M130.19,137.67c19,0,38,.18,57-.1,6.88-.09,9.14,2.72,10.5,9.37,4.08,19.95,1.29,38.6-6.39,57.33-7.21,17.57-5.4,36.84-7.35,55.35-3.22,30.6-5,61.34-7.66,92-1,11.77-10.1,17.95-23.37,14.67-14.82-3.66-29.67-3.1-44.61-3.05-7.52,0-14.82,1.41-22.19,2.88-15.49,3.08-23.25-3.7-24.52-19.41-3.07-38.12-7.72-76.16-9.33-114.33-.81-19.06-9.78-35.28-12.7-53.38-1.93-12,.24-23.5,2-35.14.67-4.58,4-5.78,8.24-5.79,4.78,0,5.51,3,5.83,6.8.49,5.73,1.18,11.45,1.93,17.16.32,2.4,1.42,4.71,4.23,4.59,3-.14,3.41-2.75,3.32-5.13-.18-5.17-.12-10.41-1-15.49-1-6.26,1.28-8.23,7.33-8.16,19.58.2,39.16.07,58.74.07ZM59.21,184c.34,2.61.27,6.3,4.36,6.81,3.24.41,4.47-2.24,4.39-5.09-.1-3.44-.22-7.5-4.79-7.82C59.84,177.69,59.41,180.79,59.21,184Z"/><path class="cls-3" d="M59.21,184c.2-3.23.63-6.33,4-6.1,4.57.32,4.69,4.38,4.79,7.82.08,2.85-1.15,5.5-4.39,5.09C59.48,190.32,59.55,186.63,59.21,184Z"/></svg>