<svg id="Layer_1" data-name="Layer 1" xmlns="http://www.w3.org/2000/svg" width="240" height="420" viewBox="0 0 240 420"><defs><style>.cls-1{fill:#f9efe6;}.cls-2{fill:#e4be6f;}</style></defs><ellipse class="cls-1" cx="90.09" cy="180.34" rx="11.4" ry="14.81"/><ellipse class="cls-1" cx="92.77" cy="392.82" rx="11.4" ry="14.81"/><path class="cls-1" d="M117.57,407.62c-10.16,0-20.32,0-30.48,0C69.93,407.53,68,405.46,70,388.72,75.64,343,76.49,297,76,251c-.62-57.47-8.73-114-21.22-170-1.16-5.16-1.82-8.9,5.42-8.14a5.69,5.69,0,0,0,4.17-1.22C76.31,59.19,90,61,103.71,67.33c14.5,6.73,29.69,5.59,44.87,5.65,9,0,17.94.31,26.88-.1,5.81-.27,7.37,1.56,6,7.17-5.34,21.69-9,43.7-12.46,65.76a780,780,0,0,0-9.18,135.58c.7,38.2,1.19,76.4,7.46,114.24,1.18,7.15-2.87,11.38-12.07,11.71-12.53.44-25.09.11-37.63.11Zm8.58-277.87c-11.05,0-22.1.09-33.15,0-5-.06-7.21,2-6.37,7.06.94,5.6,1.82,11.2,2.75,16.79.51,3.09,1,6.45-3.21,7-3.33.44-4.39-2.14-4.87-5.14-1-6.7-3.91-13-3.57-20.06.14-2.81-.89-5.54-4.59-5.17s-3.66,3.31-3.47,6.06a41.79,41.79,0,0,0,.73,4.41C75.33,168.91,79,197.38,79.62,226c.91,44.46,1.92,89-1.41,133.41-.7,9.46,3.34,14,12.64,12.73,17.59-2.51,35-1.85,52.51-.13,10.81,1.06,15.34-4.43,14.11-15.29-2.4-21.11-1.82-42.33-2.45-63.5-1.52-51.72,1.35-103.24,10.27-154.3,1.16-6.64-.84-9.45-7.78-9.25C147.07,130,136.61,129.74,126.15,129.75Z"/><path class="cls-2" d="M126.54,129.75c10.46,0,20.92.21,31.37-.08,6.93-.2,8.93,2.61,7.77,9.25-8.91,51.06-11.79,102.58-10.26,154.3.62,21.17,0,42.39,2.44,63.5,1.24,10.86-3.3,16.35-14.1,15.29-17.56-1.72-34.93-2.38-52.52.13-9.29,1.32-13.34-3.27-12.63-12.73C81.93,315,80.92,270.46,80,226c-.59-28.62-4.3-57.09-9.23-85.34a44.54,44.54,0,0,1-.73-4.41c-.19-2.75-.31-5.68,3.47-6.06s4.73,2.36,4.59,5.17c-.34,7,2.53,13.36,3.58,20.06.47,3,1.54,5.58,4.87,5.14,4.16-.55,3.71-3.91,3.2-7C88.84,148,88,142.37,87,136.77c-.85-5,1.32-7.12,6.36-7.06C104.44,129.84,115.49,129.75,126.54,129.75Zm-41.08,51a4.67,4.67,0,0,0,4,5.83c3.54.37,4.93-2.83,4.75-6.13-.2-3.56-.28-8-5.22-7.77C84.63,172.87,86.11,177.05,85.46,180.79Z"/></svg>