<svg xmlns="http://www.w3.org/2000/svg" xmlns:xlink="http://www.w3.org/1999/xlink" version="1.1" x="0px" y="0px" viewBox="0 0 100 100" enable-background="new 0 0 100 100" xml:space="preserve"><path d="M66.688,13.682c-0.001-0.013-0.009-0.024-0.01-0.037c-0.001-0.012,0.003-0.023,0.001-0.035  c-0.594-3.743-4.12-7.952-8.994-8.516c-2.038-0.236-3.28,0.191-4.19,0.503c-0.511,0.175-0.884,0.297-1.266,0.29  c-0.24-0.007-0.58-0.044-1.002-0.088c-2.244-0.234-6.421-0.669-10.702,0.952c-5.283,1.999-7.074,6.464-7.147,6.653  c-0.016,0.041-0.011,0.083-0.022,0.125c-0.013,0.052-0.038,0.098-0.043,0.153c-0.054,0.633-1.297,15.605,0.008,24.147  c0.511,3.343,1.563,7.675,2.678,12.262c1.762,7.251,3.584,14.749,3.584,19.489c0,3.918-0.541,8.124-1.063,12.19  c-0.392,3.046-0.796,6.195-0.973,9.211c-0.063,1.063,0.303,2.059,1.026,2.827C39.306,94.584,40.305,95,41.388,95h17.225  c1.067,0,2.094-0.427,2.815-1.193c0.724-0.768,1.088-1.769,1.025-2.832c-0.176-3.018-0.581-6.166-0.973-9.214  c-0.523-4.064-1.063-8.267-1.063-12.183c0-4.741,1.822-12.24,3.585-19.493c1.114-4.584,2.167-8.914,2.678-12.256  C67.984,29.287,66.741,14.315,66.688,13.682z M38.801,16.319c-0.544-0.035-1.024,0.399-1.059,0.951  C37.687,18.189,37.609,19,37.536,21h-2.653c0.114-3,0.264-5,0.351-6h29.531c0.088,1,0.238,3,0.352,6H39.539  c0.071-1,0.146-2.718,0.2-3.61C39.771,16.839,39.352,16.353,38.801,16.319z M41.231,8.737c3.841-1.453,7.711-1.107,9.788-0.891  c0.483,0.051,0.873,0.061,1.148,0.069c0.751,0.015,1.374-0.206,1.975-0.412c0.85-0.291,1.727-0.482,3.312-0.299  C60.832,7.596,63.47,10,64.403,13H36C36.849,12,38.479,9.779,41.231,8.737z M59.973,92.435C59.622,92.807,59.139,93,58.612,93  H41.388c-0.526,0-1.01-0.193-1.36-0.565c-0.343-0.362-0.515-0.823-0.485-1.329C39.621,89.758,39.751,88,39.902,87  c0.002,0,0.003,0,0.005,0h20c0.066,0,0.123-0.038,0.186-0.05c0.153,1.405,0.284,2.789,0.364,4.149  C60.486,91.606,60.314,92.073,59.973,92.435z M64.703,37.54c-0.498,3.256-1.54,7.539-2.645,12.081  c-1.79,7.367-3.642,14.982-3.642,19.963c0,4.044,0.549,8.324,1.079,12.452c0.126,0.977,0.25,1.965,0.37,2.965H40.133  c0.12-1,0.244-1.987,0.369-2.962c0.531-4.129,1.08-8.406,1.08-12.452c0-4.979-1.851-12.599-3.641-19.965  c-1.104-4.543-2.146-8.823-2.645-12.08C34.677,33.485,34.663,28,34.81,23h2.64c-0.175,5-0.232,10.299,0.381,14.305  c0.485,3.183,1.518,7.422,2.617,11.951c0.702,2.89,1.429,5.875,2.045,8.724c0.102,0.468,0.516,0.786,0.977,0.786  c0.07,0,0.142-0.008,0.213-0.023c0.539-0.117,0.882-0.65,0.766-1.19c-0.622-2.873-1.352-5.874-2.064-8.808  c-1.082-4.452-2.104-8.645-2.576-11.741C39.216,33.128,39.277,27,39.451,23H65.19C65.338,28,65.323,33.482,64.703,37.54z   M44.007,60.35c-0.543,0.102-0.901,0.636-0.801,1.179c0.624,3.355,0.928,6.024,0.928,8.103c0,0.388-0.005,0.839-0.015,1.228  C44.105,71.412,44.542,72,45.095,72c0.008,0,0.017,0,0.024,0c0.541,0,0.986-0.546,1-1.09c0.01-0.405,0.015-0.917,0.015-1.321  c0-2.203-0.314-4.965-0.961-8.442C45.071,60.604,44.548,60.247,44.007,60.35z"/></svg>