<svg xmlns="http://www.w3.org/2000/svg" xmlns:xlink="http://www.w3.org/1999/xlink" version="1.1" x="0px" y="0px" viewBox="0 0 100 100" enable-background="new 0 0 100 100" xml:space="preserve"><path d="M59.945,67.074c-0.353,0.04-0.689,0.092-1.021,0.148c1.57-2.111,3.097-5.366,2.284-9.542  c-0.051-0.264-0.207-0.496-0.433-0.645c-0.225-0.147-0.499-0.199-0.764-0.141c-0.492,0.108-0.957,0.236-1.407,0.376  c1.476-2.534,2.972-6.28,1.768-9.844c-0.17-0.503-0.703-0.786-1.217-0.643c-0.533,0.149-1.031,0.33-1.513,0.523  c1.056-2.376,1.993-5.826,0.987-9.497c-0.138-0.5-0.631-0.818-1.146-0.719c-1.283,0.235-2.394,0.736-3.362,1.381  c0.133-3.025-0.165-8.039-3.123-10.826V6c0-0.553-0.447-1-1-1s-1,0.447-1,1v21.077c-0.005,0.004-0.011,0.006-0.016,0.01  c-3.473,3.184-3.696,8.057-3.473,10.898c-0.768-0.403-1.611-0.718-2.55-0.891c-0.497-0.096-1.008,0.218-1.146,0.72  c-1.004,3.666-0.069,7.111,0.984,9.485c-0.48-0.19-0.979-0.366-1.509-0.515c-0.511-0.143-1.046,0.14-1.217,0.643  c-1.206,3.564,0.292,7.313,1.768,9.848c-0.452-0.141-0.917-0.272-1.411-0.38c-0.264-0.058-0.539-0.007-0.764,0.141  c-0.226,0.148-0.381,0.381-0.433,0.645c-0.808,4.151,0.697,7.389,2.258,9.502c-0.388-0.07-0.78-0.135-1.19-0.182  c-0.295-0.028-0.584,0.065-0.798,0.267s-0.328,0.487-0.313,0.78c0.551,10.398,7.319,13.747,9.807,14.63V94c0,0.553,0.447,1,1,1  s1-0.447,1-1V82.708c0.002-0.01,0.006-0.029,0.008-0.041c0.077-0.036,0.161-0.072,0.252-0.103c2.155-0.699,9.233-3.807,9.795-14.443  c0.015-0.294-0.1-0.579-0.313-0.78S60.237,67.046,59.945,67.074z M49.732,29.184c3.097,3.053,2.4,9.83,2.221,11.203  c-0.698,0.793-1.267,1.635-1.726,2.435c-0.629-1.105-1.448-2.241-2.489-3.225C47.53,38.484,46.643,32.757,49.732,29.184z   M43.534,39.303c4.904,1.643,6.563,8.407,6.58,8.479c0.128,0.537,0.663,0.873,1.203,0.743c0.537-0.127,0.87-0.664,0.744-1.201  c-0.027-0.113-0.247-1.02-0.744-2.252c1.031-2.247,2.777-4.84,5.595-5.774c0.823,4.88-2.19,9.3-2.629,9.912  c-1.899,1.459-3.19,3.217-4.049,4.77c-0.89-1.624-2.199-3.355-4.082-4.786C45.692,48.549,42.719,44.155,43.534,39.303z   M41.729,49.025c4.427,1.616,6.57,5.133,7.567,7.622c0.011,0.032,0.021,0.063,0.035,0.094c0.567,1.443,0.749,2.524,0.768,2.644  c0.085,0.545,0.6,0.92,1.14,0.836c0.546-0.084,0.92-0.592,0.837-1.138c-0.02-0.13-0.206-1.24-0.765-2.749  c1.111-2.614,3.26-5.794,7.407-7.309c0.742,4.402-3.129,9.231-3.681,9.893c-2.391,1.527-3.893,3.514-4.822,5.28  c-0.953-1.808-2.456-3.781-4.812-5.288C44.833,58.226,40.99,53.412,41.729,49.025z M45.378,68.353  c-0.051-0.036-4.813-3.545-4.326-9.234c7.898,2.332,8.747,9.806,8.781,10.144c0.054,0.547,0.51,0.958,1.091,0.897  c0.55-0.053,0.952-0.541,0.899-1.091c-0.003-0.03-0.106-0.984-0.549-2.354c1.02-2.777,3.247-6.164,8.12-7.597  c0.495,5.65-4.117,9.086-4.323,9.236c-0.03,0.021-0.045,0.053-0.071,0.077c-2.465,1.177-4.028,2.899-5.012,4.609  c-0.228-0.455-0.482-0.905-0.786-1.34c-0.945-1.346-2.179-2.413-3.687-3.201C45.469,68.45,45.434,68.393,45.378,68.353z   M41.291,69.17c2.821,0.534,4.926,1.766,6.267,3.67c1.809,2.568,1.88,5.852,1.713,7.816C47.088,79.799,42.161,77.014,41.291,69.17z   M51.299,80.418c0.085-1.307,0.049-3.007-0.371-4.772c0.033-0.053,0.077-0.097,0.1-0.157c1.316-3.409,3.98-5.506,7.93-6.247  C58.12,76.759,53.517,79.516,51.299,80.418z M42,35c0.553,0,1-0.447,1-1V17c0-0.553-0.447-1-1-1s-1,0.447-1,1v17  C41,34.553,41.447,35,42,35z M57,35c0.553,0,1-0.447,1-1V17c0-0.553-0.447-1-1-1s-1,0.447-1,1v17C56,34.553,56.447,35,57,35z"/></svg>