<svg id="Layer_1" data-name="Layer 1" xmlns="http://www.w3.org/2000/svg" width="240" height="420" viewBox="0 0 240 420"><defs><style>.cls-1{fill:#f9efe6;}.cls-2{fill:#410e12;}</style></defs><ellipse class="cls-1" cx="53.52" cy="186.71" rx="11.4" ry="14.81"/><path class="cls-1" d="M122.32,407.82c-16.15,0-32.3-.09-48.45,0a51,51,0,0,1-18.54-3.56c-5.53-2.08-7.68-4.86-1.64-9.43A89.17,89.17,0,0,0,70.27,378.5c11.13-14.3,14.22-29.7,7.14-46.9-10.08-24.49-23.5-47.42-32.73-72.31-10-27-15.7-54.59-15.14-83.52.5-26.5.33-53,5.59-79.16C38.18,81.47,58.24,71,72.82,76c14.36,5,28.78,9.31,44.55,8.81,26.8-.85,53.65.08,80.46-.39,7.61-.14,10.73,2.55,12.26,9.66,3.15,14.7,4.28,29.64,5.44,44.52,4.25,54.49-3.45,106.76-29.73,155.52-6.13,11.38-11.16,23.36-16.65,35.09-9.19,19.59-5,37,9,52.58a121.67,121.67,0,0,0,13.82,13c5.68,4.63,4,7.33-1.77,9.47a52.39,52.39,0,0,1-18.52,3.58C155.2,407.74,138.76,407.82,122.32,407.82Zm-.67-268.34v.26c-17.31,0-34.63.22-51.93-.12-7-.13-10.22,2-9.57,9.37a128.77,128.77,0,0,1-.06,14.7c-.08,2.5-1.16,4.81-3.93,4.82s-3.66-2.43-3.71-4.9c-.14-5.48-.44-11-.16-16.44.32-6.1-2.87-7.24-8-7s-10.15-.3-10,7.22q.26,10.82-.12,21.64A219.13,219.13,0,0,0,44,242.32c7.81,25.19,19.66,48.54,31.08,72.12,8.56,17.69,16.48,22.13,35.73,19.26,9.83-1.46,19.65-1.14,29.35-.18,14.7,1.46,21.56-1.08,28-14,10.24-20.63,20.59-41.2,29-62.72,13.82-35.46,16.29-72.28,14.46-109.73-.23-4.74-2.24-8.73-7.19-7.35-13.28,3.71-26.29-.78-39.44-.34C150.51,139.85,136.08,139.48,121.65,139.48Z"/><path class="cls-2" d="M121.65,139.48c14.43,0,28.86.37,43.27-.11,13.15-.44,26.16,4,39.44.34,4.95-1.38,7,2.61,7.19,7.35,1.83,37.45-.64,74.27-14.46,109.73-8.39,21.52-18.74,42.09-29,62.72-6.42,12.93-13.28,15.47-28,14-9.7-1-19.52-1.28-29.35.18-19.25,2.87-27.17-1.57-35.73-19.26C63.63,290.86,51.78,267.51,44,242.32A219.13,219.13,0,0,1,34.18,169q.39-10.81.12-21.64c-.19-7.52,4.89-7,10-7.22s8.35.89,8,7c-.28,5.46,0,11,.16,16.44,0,2.47.81,4.92,3.71,4.9s3.85-2.32,3.93-4.82a128.77,128.77,0,0,0,.06-14.7c-.65-7.37,2.59-9.5,9.57-9.37,17.3.34,34.62.12,51.93.12Zm-61.38,46.1c-.36-2.31-.2-5.92-4.28-5.63-3.88.28-3.66,3.86-3.71,6.71s0,6.37,4.14,6.06C60.3,192.44,60.14,189,60.27,185.58Z"/></svg>