<svg xmlns="http://www.w3.org/2000/svg" xmlns:xlink="http://www.w3.org/1999/xlink" version="1.1" x="0px" y="0px" viewBox="0 0 100 100" enable-background="new 0 0 100 100" xml:space="preserve"><path d="M82,36h-5.649c-2.471-6.672-3.146-15.004-3.306-17.695c0.304-0.129,0.573-0.333,0.764-0.616  c0.322-0.478,0.387-1.237,0.171-1.771L73.671,15h0.257c0.339,0,0.655-0.017,0.84-0.302s0.211-0.566,0.072-0.876l-1.029-2.332  C73.416,10.612,72.539,10,71.577,10h-5.62c-0.963,0-1.84,0.651-2.235,1.529l-1.029,2.329c-0.139,0.31-0.112,0.534,0.072,0.819  S63.266,15,63.604,15h0.258l-0.309,0.919c-0.215,0.535-0.15,1.217,0.172,1.695c0.118,0.175,0.273,0.353,0.44,0.471  c-0.14,2.479-0.788,11.085-3.317,17.915h-1.325L52,28.092V6h-2v22.233L41.92,36h-0.455c-2.471-6.672-3.146-15.004-3.306-17.695  c0.304-0.129,0.573-0.333,0.764-0.616c0.322-0.478,0.387-1.237,0.171-1.771L38.786,15h0.257c0.339,0,0.655-0.017,0.84-0.302  s0.211-0.566,0.072-0.876l-1.029-2.332C38.53,10.612,37.653,10,36.691,10h-5.62c-0.963,0-1.84,0.651-2.235,1.529l-1.029,2.329  c-0.139,0.31-0.112,0.534,0.072,0.819S28.38,15,28.719,15h0.258l-0.309,0.919c-0.215,0.535-0.15,1.217,0.172,1.695  c0.118,0.175,0.273,0.353,0.44,0.471C29.14,20.564,28.492,29.171,25.963,36H20c-0.553,0-1,0.447-1,1v57c0,0.553,0.447,1,1,1h62  c0.553,0,1-0.447,1-1V37C83,36.447,82.553,36,82,36z M37,65.657c0-7.72,6.28-14,14-14s14,6.28,14,14s-6.28,14-14,14  S37,73.377,37,65.657z M36.8,73H21V56h17.273C36.229,58.688,35,62.028,35,65.657C35,68.305,35.657,70.798,36.8,73z M63.727,56H81v2  h-6v2h6v13H65.2c1.143-2.202,1.8-4.695,1.8-7.343C67,62.028,65.771,58.688,63.727,56z M65.546,12.194  C65.618,12.033,65.78,12,65.957,12h5.62c0.177,0,0.338,0.033,0.41,0.194L72.382,13h-7.23L65.546,12.194z M71.514,15l0.461,1h-6.418  l0.461-1H71.514z M66.152,18h4.896c0.156,3,0.799,11.169,3.177,18H62.974C65.353,29.168,65.996,21,66.152,18z M30.66,12.194  C30.732,12.033,30.895,12,31.071,12h5.62c0.177,0,0.338,0.033,0.41,0.194L37.496,13h-7.23L30.66,12.194z M36.629,15l0.461,1h-6.418  l0.461-1H36.629z M31.267,18h4.896c0.156,3,0.799,11.169,3.177,18H28.089C30.468,29.168,31.11,21,31.267,18z M42.322,38  c0.259,0,0.507-0.1,0.693-0.279l8.036-7.725l7.318,7.693C58.559,37.888,58.821,38,59.095,38H81v16H62  c-0.022,0-0.04,0.011-0.062,0.012C59.074,51.32,55.232,49.657,51,49.657s-8.074,1.663-10.938,4.355C40.04,54.011,40.022,54,40,54H21  V38H42.322z M21,93v-6h6v-2h-6v-3h13v-2H21v-5h17c0.012,0,0.021-0.006,0.033-0.007c2.908,4.028,7.63,6.664,12.967,6.664  s10.058-2.636,12.967-6.664C63.979,74.994,63.988,75,64,75h17v18H21z M32,87h9v-2h-9V87z M43,49H30v2h13V49z"/></svg>