<svg id="Layer_1" data-name="Layer 1" xmlns="http://www.w3.org/2000/svg" width="240" height="420" viewBox="0 0 240 420"><defs><style>.cls-1{fill:#f9efe6;}.cls-2{fill:#f3c641;}</style></defs><ellipse class="cls-1" cx="89.61" cy="179.13" rx="11.4" ry="14.81"/><path class="cls-1" d="M119.58,407.62c-10.16,0-20.32,0-30.48,0C71.94,407.53,70,405.46,72,388.72,77.65,343,78.5,297,78,251c-.62-57.47-8.72-114-21.22-170-1.15-5.16-1.81-8.9,5.42-8.14a5.69,5.69,0,0,0,4.17-1.22c12-12.44,25.68-10.65,39.35-4.3,14.51,6.73,29.7,5.59,44.87,5.65,9,0,17.94.31,26.89-.1,5.8-.27,7.37,1.56,6,7.17-5.35,21.69-9,43.7-12.47,65.76a780.92,780.92,0,0,0-9.17,135.58c.69,38.2,1.18,76.4,7.45,114.24,1.18,7.15-2.87,11.38-12.06,11.71-12.54.44-25.09.11-37.64.11Zm8.58-277.87c-11,0-22.1.09-33.15,0-5-.06-7.21,2-6.37,7.06.94,5.6,1.82,11.2,2.75,16.79.51,3.09,1,6.45-3.2,7-3.33.44-4.4-2.14-4.87-5.14-1.06-6.7-3.92-13-3.58-20.06.14-2.81-.89-5.54-4.59-5.17s-3.66,3.31-3.47,6.06a44.54,44.54,0,0,0,.73,4.41c4.93,28.25,8.64,56.72,9.23,85.34.9,44.46,1.91,89-1.41,133.41-.71,9.46,3.34,14,12.63,12.73,17.59-2.51,35-1.85,52.52-.13,10.8,1.06,15.34-4.43,14.1-15.29-2.4-21.11-1.82-42.33-2.44-63.5-1.53-51.72,1.35-103.24,10.26-154.3,1.16-6.64-.84-9.45-7.77-9.25C149.08,130,138.62,129.74,128.16,129.75Z"/><path class="cls-2" d="M128.56,129.75c10.45,0,20.91.21,31.36-.08,6.93-.2,8.93,2.61,7.77,9.25C158.78,190,155.9,241.5,157.43,293.22c.62,21.17,0,42.39,2.45,63.5,1.23,10.86-3.31,16.35-14.11,15.29-17.56-1.72-34.93-2.38-52.51.13-9.3,1.32-13.35-3.27-12.64-12.73C83.94,315,82.94,270.46,82,226c-.58-28.62-4.3-57.09-9.22-85.34a44.59,44.59,0,0,1-.74-4.41c-.19-2.75-.31-5.68,3.47-6.06s4.74,2.36,4.6,5.17c-.35,7,2.52,13.36,3.57,20.06.47,3,1.54,5.58,4.87,5.14,4.16-.55,3.71-3.91,3.2-7C90.86,148,90,142.37,89,136.77c-.84-5,1.32-7.12,6.36-7.06C106.45,129.84,117.5,129.75,128.56,129.75Zm-41.08,51a4.66,4.66,0,0,0,4,5.83c3.53.37,4.92-2.83,4.74-6.13-.19-3.56-.28-8-5.22-7.77C86.64,172.87,88.12,177.05,87.48,180.79Z"/></svg>