<svg id="Layer_1" data-name="Layer 1" xmlns="http://www.w3.org/2000/svg" width="240" height="420" viewBox="0 0 240 420"><defs><style>.cls-1{fill:#f9efe6;}.cls-2{fill:#eb5f18;}</style></defs><ellipse class="cls-1" cx="80.21" cy="158.55" rx="11.4" ry="14.81"/><path class="cls-1" d="M188.42,111.35c0,16.53-.15,33.06,0,49.58.14,11.69-2.14,22.69-8.24,32.7-11,18-15,37.41-14.72,58.42.5,40.27,2.2,80.45,5.47,120.58.74,9.08-1.79,12-11.19,12.08-22.24.17-44.48.11-66.72.07-13.22,0-15-2.16-14-15.46q4.7-59.29,5.37-118.77c.23-20.11-4.08-38.63-14.22-55.83-6.77-11.47-9.24-23.81-9.15-37,.21-33.06.13-66.12,0-99.17,0-5.75-.32-11.09,7.86-10.66,1,.06,2.16-1,3-1.77,9.55-8.83,19.65-11,32-5.08,20.24,9.69,42.21,7.29,63.75,7.34,20.76,0,20.75,0,20.72,20.62Q188.39,90.17,188.42,111.35Zm-4.67,33.13c0-13.2-.06-22.21,0-31.23.05-5.07-1.84-7.91-7.36-7.88q-41,.22-82,.24c-5.3,0-7.69,2.37-7.61,7.64.09,6,0,12-.1,18-.06,2.87-.9,5.71-4.47,5.46-3-.21-3.61-2.86-3.65-5.38-.11-6.31-.07-12.63-.15-18.94-.05-3.69-1.19-6.52-5.62-6.53-4.12,0-6.16,2.24-6.15,6.13.05,19.83-.1,39.66.52,59.47a34.74,34.74,0,0,0,5.39,17c16.69,26.79,19.11,56.19,16.72,86.79-1.6,20.64-2,41.4-2.5,62.12-.24,9.62,2.82,12.15,12.62,11.86a33,33,0,0,0,8.88-1.22c11-3.46,21.84-3,32.85-.09,17.38,4.56,23,.12,22.37-17.45-.06-1.8-.18-3.6-.3-5.4-1.77-26.38-3.32-52.77-3-79.24.18-14.29,2-28.72,9.09-41C181.12,184.66,186.7,163.59,183.75,144.48Z"/><path class="cls-2" d="M183.75,144.48c2.95,19.11-2.63,40.18-14.46,60.47-7.12,12.23-8.91,26.66-9.09,41-.34,26.47,1.21,52.86,3,79.24.12,1.8.24,3.6.3,5.4.59,17.57-5,22-22.37,17.45-11-2.89-21.87-3.37-32.85.09a33,33,0,0,1-8.88,1.22c-9.8.29-12.86-2.24-12.62-11.86.52-20.72.9-41.48,2.5-62.12,2.39-30.6,0-60-16.72-86.79a34.74,34.74,0,0,1-5.39-17c-.62-19.81-.47-39.64-.52-59.47,0-3.89,2-6.14,6.15-6.13,4.43,0,5.57,2.84,5.62,6.53.08,6.31,0,12.63.15,18.94,0,2.52.68,5.17,3.65,5.38,3.57.25,4.41-2.59,4.47-5.46.14-6,.19-12,.1-18-.08-5.27,2.31-7.63,7.61-7.64q41,0,82-.24c5.52,0,7.41,2.81,7.36,7.88C183.69,122.27,183.75,131.28,183.75,144.48Zm-97,11.71c0-3.3-.08-6.75-4.12-6.91-3.47-.13-4.16,2.83-4.14,5.71s-.14,6.6,3.74,7.07C86.48,162.58,86.54,159,86.75,156.19Z"/></svg>