<svg xmlns="http://www.w3.org/2000/svg" xmlns:xlink="http://www.w3.org/1999/xlink" version="1.1" x="0px" y="0px" viewBox="0 0 100 100" enable-background="new 0 0 100 100" xml:space="preserve"><path d="M93.083,47H88.76c-0.607-3-1.634-6.357-3.373-11.005c-2.437-6.531-3.104-14.616-3.263-17.275  c0.296-0.128,0.558-0.269,0.744-0.545c0.32-0.474,0.384-0.998,0.17-1.53L82.748,16h0.222c0.339,0,0.655-0.217,0.84-0.502  s0.211-0.666,0.072-0.976l-1.008-2.167C82.483,11.487,81.617,11,80.666,11h-5.505c-0.951,0-1.817,0.476-2.208,1.343l-1.009,2.198  c-0.139,0.309-0.112,0.692,0.072,0.977S72.517,16,72.856,16h0.223l-0.291,0.675c-0.213,0.53-0.149,1.107,0.171,1.581  c0.115,0.171,0.265,0.295,0.428,0.411c-0.139,2.45-0.779,10.648-3.273,17.332C68.374,40.648,67.348,44,66.74,47h-5.98  c-0.607-3-1.634-6.357-3.373-11.005c-2.437-6.531-3.104-14.616-3.263-17.275c0.296-0.128,0.558-0.269,0.744-0.545  c0.32-0.474,0.384-0.998,0.17-1.53L54.748,16h0.222c0.339,0,0.655-0.217,0.84-0.502s0.211-0.666,0.072-0.976l-1.008-2.167  C54.483,11.487,53.617,11,52.666,11h-5.505c-0.951,0-1.817,0.476-2.208,1.343l-1.009,2.198c-0.139,0.309-0.112,0.692,0.072,0.977  S44.517,16,44.856,16h0.223l-0.291,0.675c-0.213,0.53-0.149,1.107,0.171,1.581c0.115,0.171,0.265,0.295,0.428,0.411  c-0.139,2.45-0.779,10.648-3.273,17.332C40.374,40.648,39.348,44,38.74,47h-5.98c-0.607-3-1.634-6.357-3.373-11.005  c-2.437-6.531-3.104-14.616-3.263-17.275c0.296-0.128,0.558-0.269,0.744-0.545c0.32-0.474,0.384-0.998,0.17-1.53L26.748,16h0.222  c0.339,0,0.655-0.217,0.84-0.502s0.211-0.666,0.072-0.976l-1.008-2.167C26.483,11.487,25.617,11,24.666,11h-5.505  c-0.951,0-1.817,0.476-2.208,1.343l-1.009,2.198c-0.139,0.309-0.112,0.692,0.072,0.977S16.517,16,16.856,16h0.223l-0.291,0.675  c-0.213,0.53-0.149,1.107,0.171,1.581c0.115,0.171,0.265,0.295,0.428,0.411c-0.139,2.45-0.779,10.648-3.273,17.332  C12.374,40.648,11.348,44,10.74,47H6.406C5.656,47,5,47.625,5,48.472V87.5c0,1,0.979,1.5,1.531,1.5h86.75  c1,0,1.719-0.906,1.719-1.781V48.917C95,47.875,94.292,47,93.083,47z M80.127,19c0.077,1,0.271,3.913,0.73,7h-6.214  c0.459-3.087,0.653-6,0.73-7H80.127z M74.317,28h6.865c0.361,2.04,0.838,4.211,1.467,6.329l-4.756,5.148l-5.039-5.16  C73.481,32.202,73.957,30.036,74.317,28z M74.777,13.209C74.845,13.059,74.996,13,75.161,13h5.505c0.165,0,0.316,0.059,0.384,0.209  L81.423,14h-7.02L74.777,13.209z M80.591,16l0.436,1H74.8l0.436-1H80.591z M71.986,36.694c0.056-0.151,0.11-0.187,0.165-0.339  l5.046,5.247C77.386,41.795,77.644,42,77.913,42c0.005,0,0.009,0,0.014,0c0.274,0,0.534-0.158,0.721-0.359l4.715-5.131  c0.051,0.14,0.1,0.046,0.152,0.185C85.142,41.047,86.131,45,86.726,47H68.774C69.369,45,70.358,41.046,71.986,36.694z M52.127,19  c0.077,1,0.271,3.913,0.73,7h-6.214c0.459-3.087,0.653-6,0.73-7H52.127z M46.317,28h6.865c0.361,2.04,0.838,4.211,1.466,6.329  l-4.756,5.148l-5.039-5.16C45.481,32.202,45.957,30.036,46.317,28z M46.777,13.209C46.845,13.059,46.996,13,47.161,13h5.505  c0.165,0,0.316,0.059,0.384,0.209L53.423,14h-7.02L46.777,13.209z M52.591,16l0.436,1H46.8l0.436-1H52.591z M43.986,36.694  c0.056-0.151,0.11-0.187,0.165-0.339l5.046,5.247C49.386,41.795,49.644,42,49.913,42c0.005,0,0.009,0,0.014,0  c0.274,0,0.534-0.158,0.721-0.359l4.715-5.131c0.05,0.14,0.1,0.046,0.152,0.185C57.142,41.047,58.131,45,58.726,47H40.774  C41.369,45,42.358,41.046,43.986,36.694z M24.127,19c0.077,1,0.271,3.913,0.73,7h-6.214c0.459-3.087,0.653-6,0.73-7H24.127z   M18.317,28h6.865c0.361,2.04,0.838,4.211,1.466,6.329l-4.756,5.148l-5.039-5.16C17.481,32.202,17.957,30.036,18.317,28z   M18.777,13.209C18.845,13.059,18.996,13,19.161,13h5.505c0.165,0,0.316,0.059,0.384,0.209L25.423,14h-7.02L18.777,13.209z   M24.591,16l0.436,1H18.8l0.436-1H24.591z M15.986,36.694c0.056-0.151,0.11-0.187,0.165-0.339l5.046,5.247  C21.386,41.795,21.644,42,21.913,42c0.005,0,0.009,0,0.014,0c0.274,0,0.534-0.158,0.721-0.359l4.715-5.131  c0.05,0.14,0.1,0.046,0.152,0.185C29.142,41.047,30.131,45,30.726,47H12.774C13.369,45,14.358,41.046,15.986,36.694z M7,87V75h8  c0.553,0,1-0.447,1-1s-0.447-1-1-1H7V63h17c0.553,0,1-0.447,1-1s-0.447-1-1-1H7V49h86v24H82c-0.553,0-1,0.447-1,1s0.447,1,1,1h11v12  H7z M72,63h16c0.553,0,1-0.447,1-1s-0.447-1-1-1H72c-0.553,0-1,0.447-1,1S71.447,63,72,63z M78,73h-3c-0.553,0-1,0.447-1,1  s0.447,1,1,1h3c0.553,0,1-0.447,1-1S78.553,73,78,73z M69,61c0-0.552-0.448-1-1-1H31c-0.552,0-1,0.448-1,1v13c0,0.552,0.448,1,1,1  h37c0.552,0,1-0.448,1-1V61z M67,73H32V62h35V73z M75,80H60c-0.553,0-1,0.447-1,1s0.447,1,1,1h15c0.553,0,1-0.447,1-1  S75.553,80,75,80z M33,55c0-0.553-0.447-1-1-1h-7c-0.553,0-1,0.447-1,1s0.447,1,1,1h7C32.553,56,33,55.553,33,55z"/></svg>