<svg id="Layer_1" data-name="Layer 1" xmlns="http://www.w3.org/2000/svg" width="240" height="420" viewBox="0 0 240 420"><defs><style>.cls-1{fill:#f9efe6;}.cls-2{fill:#f7e8a0;}</style></defs><ellipse class="cls-1" cx="96.04" cy="175.79" rx="11.4" ry="14.81"/><path class="cls-1" d="M119.58,404.55c-10.16,0-20.32,0-30.48,0C71.94,404.47,70,402.39,72,385.66,77.65,339.92,78.5,294,78,248c-.62-57.47-8.72-114-21.22-170C55.63,72.76,55,69,62.2,69.78a5.68,5.68,0,0,0,4.17-1.21c12-12.44,25.68-10.65,39.35-4.3,14.51,6.73,29.7,5.59,44.87,5.64,9,0,17.94.32,26.89-.1,5.8-.27,7.37,1.57,6,7.17-5.35,21.7-9,43.71-12.47,65.77a780.92,780.92,0,0,0-9.17,135.58c.69,38.19,1.18,76.39,7.45,114.23,1.18,7.15-2.87,11.39-12.06,11.71-12.54.45-25.09.12-37.64.12Zm8.58-277.86c-11,0-22.1.09-33.15,0-5-.07-7.21,2-6.37,7.06.94,5.59,1.82,11.19,2.75,16.79.51,3.08,1,6.44-3.2,7-3.33.44-4.4-2.13-4.87-5.13-1.06-6.7-3.92-13.05-3.58-20.06.14-2.81-.89-5.54-4.59-5.17s-3.66,3.31-3.47,6.06a44.54,44.54,0,0,0,.73,4.41c4.93,28.25,8.64,56.72,9.23,85.34.9,44.45,1.91,89-1.41,133.4-.71,9.46,3.34,14.06,12.63,12.73,17.59-2.5,35-1.84,52.52-.12,10.8,1.06,15.34-4.43,14.1-15.29-2.4-21.11-1.82-42.34-2.44-63.5-1.53-51.73,1.35-103.24,10.26-154.31,1.16-6.63-.84-9.45-7.77-9.25C149.08,126.9,138.62,126.68,128.16,126.69Z"/><path class="cls-2" d="M128.56,126.68c10.45,0,20.91.22,31.36-.08,6.93-.2,8.93,2.62,7.77,9.25-8.91,51.07-11.79,102.58-10.26,154.31.62,21.16,0,42.39,2.45,63.5,1.23,10.86-3.31,16.35-14.11,15.29-17.56-1.72-34.93-2.38-52.51.12-9.3,1.33-13.35-3.27-12.64-12.73,3.32-44.44,2.32-88.95,1.41-133.4-.58-28.62-4.3-57.09-9.22-85.34a44.59,44.59,0,0,1-.74-4.41c-.19-2.75-.31-5.69,3.47-6.06s4.74,2.36,4.6,5.17c-.35,7,2.52,13.36,3.57,20.06.47,3,1.54,5.57,4.87,5.13,4.16-.55,3.71-3.91,3.2-7-.92-5.6-1.81-11.2-2.74-16.79-.84-5.05,1.32-7.13,6.36-7.06C106.45,126.78,117.5,126.69,128.56,126.68Zm-41.08,51a4.65,4.65,0,0,0,4,5.83c3.53.38,4.92-2.83,4.74-6.12-.19-3.56-.28-8-5.22-7.78C86.64,169.81,88.12,174,87.48,177.72Z"/></svg>