<svg id="Layer_1" data-name="Layer 1" xmlns="http://www.w3.org/2000/svg" width="240" height="420" viewBox="0 0 240 420"><defs><style>.cls-1{fill:#f9efe6;}.cls-2{fill:#d15f00;}</style></defs><ellipse class="cls-1" cx="50.46" cy="184.43" rx="11.4" ry="14.81"/><path class="cls-1" d="M119.25,405.54c-16.15,0-32.3-.09-48.45,0A51.23,51.23,0,0,1,52.27,402c-5.53-2.08-7.69-4.86-1.65-9.42a89.28,89.28,0,0,0,16.59-16.37c11.13-14.3,14.22-29.69,7.13-46.9C64.27,304.84,50.84,281.9,41.61,257c-10-27-15.69-54.6-15.14-83.52.51-26.51.34-53,5.6-79.16,3-15.15,23.11-25.67,37.69-20.62,14.35,5,28.77,9.31,44.55,8.81,26.79-.85,53.64.08,80.46-.39,7.61-.14,10.72,2.55,12.25,9.66,3.16,14.7,4.29,29.64,5.45,44.52,4.25,54.49-3.46,106.76-29.73,155.52-6.14,11.38-11.16,23.36-16.66,35.09-9.18,19.59-5,37,9,52.58a120.69,120.69,0,0,0,13.81,13c5.69,4.64,4,7.33-1.76,9.47a52,52,0,0,1-18.53,3.58C152.13,405.46,135.69,405.55,119.25,405.54Zm-.66-268.34v.26c-17.32,0-34.63.23-51.94-.11-7-.14-10.22,2-9.57,9.36a124.34,124.34,0,0,1-.06,14.7c-.07,2.5-1.15,4.81-3.92,4.83s-3.66-2.44-3.72-4.91c-.13-5.48-.43-11-.15-16.44.31-6.1-2.87-7.23-8-7s-10.15-.3-10,7.23c.18,7.2.15,14.43-.11,21.63A219.13,219.13,0,0,0,40.91,240c7.8,25.19,19.66,48.54,31.07,72.13,8.57,17.68,16.48,22.12,35.74,19.25,9.83-1.46,19.65-1.14,29.34-.18,14.71,1.46,21.57-1.08,28-14,10.24-20.63,20.59-41.2,29-62.72,13.82-35.46,16.28-72.27,14.46-109.73-.23-4.73-2.25-8.73-7.19-7.34-13.29,3.7-26.29-.78-39.44-.35C147.45,137.58,133,137.2,118.59,137.2Z"/><path class="cls-2" d="M118.59,137.2c14.42,0,28.86.38,43.27-.11,13.15-.43,26.15,4,39.44.35,4.94-1.39,7,2.61,7.19,7.34,1.82,37.46-.64,74.27-14.46,109.73-8.39,21.52-18.74,42.09-29,62.72-6.42,12.93-13.28,15.47-28,14-9.69-1-19.51-1.28-29.34.18-19.26,2.87-27.17-1.57-35.74-19.25C60.57,288.58,48.71,265.23,40.91,240a219.13,219.13,0,0,1-9.79-73.28c.26-7.2.29-14.43.11-21.63-.18-7.53,4.9-7,10-7.23s8.34.89,8,7c-.28,5.47,0,11,.15,16.44.06,2.47.82,4.92,3.72,4.91S57,163.91,57,161.41a124.34,124.34,0,0,0,.06-14.7c-.65-7.37,2.6-9.5,9.57-9.36,17.31.34,34.62.11,51.94.11ZM57.21,183.3c-.36-2.31-.21-5.92-4.29-5.63-3.88.29-3.65,3.87-3.7,6.71s0,6.37,4.14,6.06C57.24,190.16,57.08,186.73,57.21,183.3Z"/></svg>