<svg xmlns="http://www.w3.org/2000/svg" xmlns:xlink="http://www.w3.org/1999/xlink" version="1.1" x="0px" y="0px" viewBox="0 0 100 100" enable-background="new 0 0 100 100" xml:space="preserve"><path d="M72.288,49.671c0.449-2.031,0.543-4.066,0.244-6.018c-0.534-3.488-2.307-6.418-4.989-8.314  c-1.761-6.113-7.725-8.31-10.364-9.279l-0.564-0.21c-1.883-0.717-2.854-2.915-3.137-4.732c-0.332-2.142,0.178-4.165,1.271-5.034  c2.794-2.224,6.355-3.219,6.391-3.229l0.762-0.209l-0.026-0.789c-0.005-0.171-0.174-4.218-3.219-6.861l-0.588-0.511l-0.639,0.445  c-0.039,0.027-3.969,2.757-5.61,3.544c-3.682,1.763-4.131,6.309-4.491,9.962l-0.072,0.712c-0.33,3.206-2.872,6.388-5.787,7.245  c-1.621,0.477-7.11,2.408-9.7,7.256c-0.696,1.304-1.103,2.699-1.25,4.169c-1.087,0.955-4.648,4.447-5.005,9.531  c-0.132,1.883,0.199,3.753,0.971,5.6c-0.693,1.753-2.734,8.407,2.579,15.504c-0.261,2.355-0.55,11.327,8.851,18.147l0.713,0.518  l0.604-0.643c0.249-0.265,0.483-0.52,0.705-0.766c1.002,2.416,3.452,6.741,8.752,8.962l0.481,0.202l0.44-0.279  c5.379-3.407,7.488-7.005,8.205-8.582c0.478,0.361,1,0.696,1.582,0.976l0.488,0.235l0.464-0.28  c6.939-4.194,12.191-12.591,9.729-19.012C73.8,62.594,76.036,55.637,72.288,49.671z M64.254,71.546  c-2.717-1.326-5.402-4.64-6.451-6.032c2.745-3.879,3.575-7.536,3.824-9.34c1.299,0.919,2.774,1.779,4.404,2.478  c-0.056,1.147-0.306,3.634-1.402,5.589c-0.271,0.481-0.099,1.091,0.383,1.361c0.155,0.087,0.322,0.128,0.488,0.128  c0.35,0,0.689-0.184,0.873-0.511c1.458-2.599,1.649-5.804,1.671-6.873c1.476-1.862,2.622-3.859,3.408-5.902  C74.107,59.231,68.898,67.342,64.254,71.546z M49.005,84.435c-5.381-2.625-8.723-10.86-9.576-13.184  c1.459-1.189,2.227-2.411,2.61-3.459c1.575,1.86,3.535,3.539,5.961,4.728V77c0,0.553,0.447,1,1,1s1-0.447,1-1v-4.315  c2.784-1.714,4.915-3.621,6.535-5.533c0.666,0.856,1.681,2.072,2.894,3.25C59.002,71.785,56.243,79.912,49.005,84.435z M49,44  c0.553,0,1-0.448,1-1v-7.725c1.485,2.62,3.73,4.926,7.653,6.355c-0.827,2.869-3.61,11.142-8.997,14.453  c-6.031-4.065-7.751-10.429-8.228-13.189c2.894-1.456,5.558-3.894,7.571-7.044V43C48,43.552,48.447,44,49,44z M48,58.039V63  c0,0.553,0.447,1,1,1s1-0.447,1-1v-5.407c2.047-1.187,4.445-4.112,5.948-6.706c0.855,1.039,1.889,2.27,3.769,3.808L59.735,55  c-0.002,0-0.16,9.43-10.728,15.955c-8.237-3.945-10.703-14.837-11.009-16.346c1.432-1.337,2.544-2.644,3.264-3.573  C42.708,53.506,44.845,56.034,48,58.039z M70.556,43.956c0.639,4.169-0.752,8.81-3.826,12.832c-5.159-2.244-8.678-6.43-9.752-7.825  c1.349-2.733,2.18-5.305,2.588-6.734c1.817,0.466,3.955,0.762,6.443,0.867c0.28,1.016,0.701,3.183-0.036,5.305  c-0.182,0.522,0.095,1.092,0.616,1.273c0.108,0.038,0.22,0.056,0.328,0.056c0.414,0,0.801-0.259,0.944-0.672  c1.073-3.089,0.221-6.118-0.085-7.023c0.219-1.299,0.298-2.495,0.255-3.593C69.346,39.925,70.227,41.81,70.556,43.956z   M33.532,34.591c2.223-4.162,7.067-5.858,8.5-6.279c3.697-1.087,6.798-4.938,7.213-8.959l0.072-0.721  c0.327-3.318,0.699-7.078,3.364-8.355c1.36-0.651,3.967-2.393,5.207-3.237c1.271,1.408,1.732,3.168,1.897,4.145  c-1.322,0.451-3.991,1.509-6.284,3.334c-1.687,1.342-2.453,3.988-2,6.906c0.47,3.027,2.155,5.438,4.399,6.294l0.587,0.218  c3.496,1.284,10.659,3.916,9.413,13.165c-11.056-0.517-13.771-5.2-15.438-9.572c-0.192-0.504-0.663-0.834-1.2-0.842  c-0.568-0.023-1.028,0.311-1.238,0.815c-2.024,4.875-5.816,8.751-9.842,10.125c-1.041,0.356-3.308,0.998-5.395,0.665  C32.004,39.417,32.337,36.829,33.532,34.591z M27.507,47.506c0.205-3.005,1.801-5.412,3.048-6.864  c0.094,0.758,0.261,1.534,0.485,2.325c-0.574,0.903-1.684,3.124-1.194,6.242c0.078,0.493,0.503,0.845,0.987,0.845  c0.052,0,0.104-0.004,0.156-0.012c0.546-0.085,0.918-0.597,0.833-1.143c-0.358-2.277,0.346-3.902,0.778-4.649  c0.599,0.098,1.201,0.164,1.808,0.164c1.375,0,2.761-0.25,4.12-0.715c0.259,1.368,0.757,3.282,1.711,5.364  c-0.973,1.35-4.306,5.629-8.864,7.738C28.596,53.733,27.296,50.609,27.507,47.506z M27.791,55.397  c0.627,0.977,1.379,1.945,2.262,2.903c-0.176,1.152-0.377,3.965,1.206,6.701c0.186,0.32,0.521,0.499,0.866,0.499  c0.17,0,0.342-0.043,0.5-0.135c0.478-0.276,0.642-0.888,0.364-1.366c-1.229-2.125-1.099-4.371-0.972-5.307  c1.572-0.704,3.002-1.622,4.262-2.611c0.49,1.976,1.684,5.865,4.137,9.549c0.05,0.768-0.14,3.694-5.467,5.944  C26.854,65.193,27.04,58.609,27.791,55.397z M38.379,84.448c-6.128-4.795-7.286-10.544-7.397-13.749  c0.84,0.862,1.809,1.723,2.906,2.576c0.164,0.751,0.598,2.58,1.3,4.451c0.151,0.401,0.532,0.648,0.937,0.648  c0.117,0,0.236-0.021,0.352-0.063c0.518-0.194,0.778-0.771,0.585-1.288c-0.537-1.428-0.912-2.864-1.114-3.718  c0.65-0.285,1.253-0.578,1.78-0.883c0.618,1.629,1.912,4.681,3.873,7.598C41.426,80.501,40.777,81.804,38.379,84.448z   M48.983,92.617c-5.129-2.384-7.069-7.165-7.563-8.651c0.682-0.855,1.168-1.56,1.507-2.139c1.424,1.771,3.114,3.353,5.073,4.341V89  c0,0.553,0.447,1,1,1s1-0.447,1-1v-2.847c1.804-1.12,3.348-2.428,4.664-3.809c0.379,0.67,0.836,1.395,1.572,2.206l-0.013,0.069  C56.21,84.662,54.909,88.709,48.983,92.617z M59.789,84.936c-2.065-1.197-3.245-3.243-3.707-4.193  c2.837-3.5,4.348-7.108,4.979-8.899c0.754,0.596,1.549,1.121,2.359,1.514c-0.063,1.017-0.352,2.813-1.259,4.055  c-0.325,0.446-0.229,1.071,0.218,1.397c0.178,0.13,0.385,0.192,0.589,0.192c0.309,0,0.612-0.072,0.809-0.339  c1.405-1.923,1.622-4.574,1.655-5.49c1.057-0.938,2.127-2.038,3.141-3.265C69.51,75.018,65.195,81.454,59.789,84.936z M37.22,34.914  C37.352,34.973,37.489,35,37.624,35c0.384,0,0.75-0.222,0.915-0.595c0.012-0.025,1.174-2.574,4.386-3.44  c0.534-0.144,0.85-0.692,0.706-1.226c-0.144-0.534-0.692-0.849-1.227-0.705c-4.123,1.111-5.631,4.42-5.693,4.56  C36.487,34.1,36.715,34.69,37.22,34.914z M54.555,30.058c0.04,0.015,3.985,1.572,6.277,4.552c0.197,0.256,0.494,0.39,0.794,0.39  c0.213,0,0.427-0.067,0.608-0.208c0.438-0.336,0.52-0.964,0.184-1.402c-2.641-3.433-6.959-5.127-7.142-5.198  c-0.513-0.196-1.093,0.057-1.292,0.572C53.785,29.279,54.04,29.857,54.555,30.058z"/></svg>