<svg id="Layer_1" data-name="Layer 1" xmlns="http://www.w3.org/2000/svg" width="434.65" height="371.36" viewBox="0 0 434.65 371.36"><defs><style>.cls-1{fill:#f9a842;}</style></defs><circle cx="183.71" cy="186.22" r="179.26"/><path class="cls-1" d="M114.19,345.76l.28-39.45,2.2.1q4,15.06,9.55,23.73,10.41,16,26.17,16,11,0,18.15-7.35t7.17-18.63a33.38,33.38,0,0,0-1.58-9.93,29.1,29.1,0,0,0-4.25-8.69,32.4,32.4,0,0,0-7.79-7.17,145.83,145.83,0,0,0-15.33-8.69,152.09,152.09,0,0,1-13.89-7.74,40,40,0,0,1-7.79-6.4,31.19,31.19,0,0,1-8.21-21.87,37.8,37.8,0,0,1,3.2-15.28A36.68,36.68,0,0,1,131,221.78a34.13,34.13,0,0,1,24-9.36,36.25,36.25,0,0,1,8.31.9,70.29,70.29,0,0,1,10.22,3.59c3.19,1.27,5.35,2.08,6.5,2.43a10.58,10.58,0,0,0,3.05.53c2.23,0,3.73-1.63,4.49-4.87h2.2l.67,37.92h-2.2q-2.57-9.07-4.43-13.9a51.63,51.63,0,0,0-4.44-8.93,34.19,34.19,0,0,0-10.29-11,23.63,23.63,0,0,0-13-3.59q-10.68,0-16.88,7.27a22.26,22.26,0,0,0-4,7,23,23,0,0,0-1.48,8q0,16,20.51,25.72L167.63,270q15.54,7.35,22.41,16.25a36.37,36.37,0,0,1,7.82,23.14,41.2,41.2,0,0,1-3.53,16.77,37.45,37.45,0,0,1-14.9,17.2q-9.94,6-23.41,6.05a59.52,59.52,0,0,1-23.69-4.87c-3.94-1.72-6.3-2.71-7.06-3a8.32,8.32,0,0,0-2.58-.38q-4.59,0-6.31,4.58Z"/><path class="cls-1" d="M237.12,307.55l17.36-19a77.36,77.36,0,0,0,7.15-8.94,11,11,0,0,0,1.82-5.87q0-4-4.23-5.65a24.28,24.28,0,0,0-6.82-1V265h36.78v2.1c-4.64,0-8.39.8-11.25,2.37s-6.6,4.87-11.24,9.86l-3.82,4.3-10.39,11.17,24.61,27.71c2,2.23,3.37,3.66,4,4.29l4.3,4.4q5.14,5.12,7.44,7a33.65,33.65,0,0,0,5.43,3.6,24.81,24.81,0,0,0,9.35,2.37v2h-44.8v-2a15,15,0,0,0,5.69-1.33,4.43,4.43,0,0,0,2.3-4c0-1.84-.93-3.76-2.77-5.78l-2-2.29-23.08-25.6-5.82,6.38v7l.09,7.24a42.07,42.07,0,0,0,.77,9.48,9.86,9.86,0,0,0,3,5q2.67,2.58,9.84,3.91v2H208.56v-2c3.82-.51,6.56-1.22,8.21-2.15a9.79,9.79,0,0,0,4-4.72,21.09,21.09,0,0,0,1.48-6.63q.42-4.42.43-12.82V243a133.13,133.13,0,0,0-.48-13.74,15,15,0,0,0-2.1-6.48,9.79,9.79,0,0,0-3.92-3.82,17.92,17.92,0,0,0-6.59-1.43v-2.1l27.51-3.44Z"/><path class="cls-1" d="M388,336.88l1.62.95q-3.44,10-15.76,10a18.4,18.4,0,0,1-11.29-3.34q-3-2.19-6.12-7.64a62.31,62.31,0,0,1-9.66,7.54,29.29,29.29,0,0,1-14.44,3.44q-10.53,0-16.7-5.06t-6.17-13.66a18.58,18.58,0,0,1,5.07-13.28,22.53,22.53,0,0,1,6.59-4.72A63.57,63.57,0,0,1,332,307.55q8.31-2.1,12.27-3.53a25,25,0,0,0,6.64-3.44,11.49,11.49,0,0,0,4.21-5.16,23.58,23.58,0,0,0,1.14-8.21q0-11.18-4.2-16.34a13.94,13.94,0,0,0-4.92-3.82,14.47,14.47,0,0,0-6.26-1.43,12.4,12.4,0,0,0-7,2,12.15,12.15,0,0,0-4.58,5.54l-2.39,5.54A6.9,6.9,0,0,1,320,283.2a7.47,7.47,0,0,1-5.44-2.15,7.23,7.23,0,0,1-2.2-5.4q0-4.87,6.89-8.21a41.32,41.32,0,0,1,9.23-2.82,55.12,55.12,0,0,1,10.76-1.1,53.06,53.06,0,0,1,12.34,1.53A42.57,42.57,0,0,1,362.33,269q6.23,3.54,7.75,9.17a42.06,42.06,0,0,1,.77,9.65v35.34q0,9,.76,12.23,1.62,6.78,7.83,6.78a8.65,8.65,0,0,0,4.63-1.05A16.43,16.43,0,0,0,388,336.88Zm-31.62-37.64a63.29,63.29,0,0,1-11.33,7.55,97.79,97.79,0,0,0-9.62,5.64,25.52,25.52,0,0,0-4.85,4.58,19.88,19.88,0,0,0-4.48,12.9,15.55,15.55,0,0,0,3.48,10.41,11,11,0,0,0,8.81,4.1,15,15,0,0,0,8.8-2.91,18,18,0,0,0,6.24-7.78q3-6.41,2.95-18.53Zm-13.66-78.51a15.64,15.64,0,1,1-11.08,4.58A15.11,15.11,0,0,1,342.76,220.73Zm0,4.87a10.25,10.25,0,0,0-7.59,3.15,10.71,10.71,0,0,0,15.14,15.14,10.72,10.72,0,0,0-7.55-18.29Z"/><path class="cls-1" d="M390.81,215.38l27.51-3.44V318.46l.09,7.26a42.17,42.17,0,0,0,.77,9.49,9.92,9.92,0,0,0,3,5q2.67,2.56,9.84,3.91v2H389.76v-2c3.82-.51,6.56-1.22,8.21-2.15a9.72,9.72,0,0,0,4-4.72,20.77,20.77,0,0,0,1.49-6.63q.42-4.42.42-12.82V243a133.94,133.94,0,0,0-.47-13.74,15,15,0,0,0-2.1-6.48,9.79,9.79,0,0,0-3.92-3.82,17.92,17.92,0,0,0-6.59-1.43Z"/><path d="M387.73,336.73l1.63.95q-3.45,10-15.76,10a18.4,18.4,0,0,1-11.29-3.34q-3-2.21-6.12-7.64a63.4,63.4,0,0,1-9.67,7.54,29.26,29.26,0,0,1-14.44,3.44q-10.53,0-16.69-5.06T309.22,329a18.55,18.55,0,0,1,5.06-13.28,22.7,22.7,0,0,1,6.59-4.73,63.7,63.7,0,0,1,10.79-3.58q8.31-2.1,12.28-3.53a25.64,25.64,0,0,0,6.64-3.44,11.46,11.46,0,0,0,4.2-5.16,23.54,23.54,0,0,0,1.15-8.21q0-11.18-4.21-16.34a13.76,13.76,0,0,0-4.92-3.82,14.43,14.43,0,0,0-6.25-1.43,12.41,12.41,0,0,0-7,2A12.27,12.27,0,0,0,329,273l-2.39,5.54a6.89,6.89,0,0,1-6.88,4.48,7.47,7.47,0,0,1-5.44-2.14,7.25,7.25,0,0,1-2.2-5.4q0-4.87,6.89-8.22a42.22,42.22,0,0,1,9.23-2.81,55.15,55.15,0,0,1,10.77-1.1,53.12,53.12,0,0,1,12.34,1.53A42.86,42.86,0,0,1,362,268.81q6.21,3.54,7.74,9.17a42.06,42.06,0,0,1,.77,9.65V323q0,9,.76,12.23,1.63,6.78,7.84,6.78a8.7,8.7,0,0,0,4.63-1.05A16.43,16.43,0,0,0,387.73,336.73Zm-31.61-37.64a64.2,64.2,0,0,1-11.33,7.55,99.1,99.1,0,0,0-9.62,5.63,25.65,25.65,0,0,0-4.86,4.59,19.92,19.92,0,0,0-4.47,12.89,15.56,15.56,0,0,0,3.47,10.41,11.05,11.05,0,0,0,8.81,4.11,15.06,15.06,0,0,0,8.81-2.91,17.92,17.92,0,0,0,6.23-7.79q3-6.39,3-18.53Zm-13.66-78.52a15.67,15.67,0,1,1-11.08,4.59A15.09,15.09,0,0,1,342.46,220.57Zm0,4.88a10.26,10.26,0,0,0-7.6,3.15A10.71,10.71,0,0,0,350,243.74a10.72,10.72,0,0,0-7.54-18.29Z"/><path d="M390.5,215.23,418,211.79V318.31l.1,7.25a42.35,42.35,0,0,0,.76,9.5,9.92,9.92,0,0,0,3,5q2.69,2.58,9.84,3.92v2H389.45v-2q5.73-.76,8.22-2.15a9.83,9.83,0,0,0,4-4.72,20.82,20.82,0,0,0,1.48-6.63q.43-4.44.43-12.83V242.79a133,133,0,0,0-.48-13.73,15.1,15.1,0,0,0-2.1-6.49,9.74,9.74,0,0,0-3.91-3.81,17.93,17.93,0,0,0-6.6-1.43Z"/><path id="a-section" class="cls-1" d="M345.39,263.79l-1.1,2.25c-1.64-.35-6.3-1.12-10.22,1.53a23.2,23.2,0,0,0-5,6.42c-2.06,3.84-1.38,4.88-3.1,6.65a8.55,8.55,0,0,1-8.71,2.3,8.08,8.08,0,0,1-5.16-6.54c-.52-4.33,3.1-7.49,4.24-8.48,3.41-3,7.48-3.39,15.59-4.24a59.11,59.11,0,0,1,13.5.11Z"/><path id="punto" class="cls-1" d="M357.34,230.2a16,16,0,1,0-21.78,20.64c8,3.94,15.74-1.18,16.05-1.39Z"/><ellipse cx="343.13" cy="236.06" rx="10.47" ry="10.38"/><path id="k" d="M351.38,249.46q3-9.53,6.08-19a15.61,15.61,0,0,1-6.08,19Z"/><path id="k1" d="M264.78,346.11,287,332.69a45.46,45.46,0,0,0,5.35,4.93,28.07,28.07,0,0,0,8.87,5.28,22,22,0,0,0,6.42,1.14l.07,2.22Z"/></svg>