<svg id="Layer_1" data-name="Layer 1" xmlns="http://www.w3.org/2000/svg" width="500" height="500" viewBox="0 0 500 500"><defs><style>.cls-1{fill:#f9a842;}</style></defs><circle cx="220.17" cy="232.31" r="179.26"/><path class="cls-1" d="M150.64,391.85l.29-39.45,2.2.1q4,15.06,9.55,23.72,10.41,16,26.17,16,11,0,18.15-7.35t7.16-18.63a33.26,33.26,0,0,0-1.57-9.93,29.1,29.1,0,0,0-4.25-8.69,32.2,32.2,0,0,0-7.79-7.17,145.83,145.83,0,0,0-15.33-8.69,153.91,153.91,0,0,1-13.9-7.74,40.16,40.16,0,0,1-7.78-6.4,31.19,31.19,0,0,1-8.22-21.87,37.93,37.93,0,0,1,3.2-15.28,36.71,36.71,0,0,1,8.94-12.61,34.11,34.11,0,0,1,24-9.36,36.25,36.25,0,0,1,8.31.9A70.7,70.7,0,0,1,210,263c3.19,1.27,5.35,2.08,6.5,2.43a10.58,10.58,0,0,0,3,.53c2.23,0,3.73-1.63,4.49-4.87h2.2l.67,37.92h-2.2q-2.56-9.08-4.43-13.9a51.63,51.63,0,0,0-4.44-8.93q-4.67-7.46-10.3-11a23.59,23.59,0,0,0-13-3.59q-10.68,0-16.88,7.27a22.07,22.07,0,0,0-4,7,23,23,0,0,0-1.48,8q0,16,20.51,25.72l13.44,6.5q15.55,7.37,22.42,16.26a36.37,36.37,0,0,1,7.82,23.14,41,41,0,0,1-3.54,16.77,37.33,37.33,0,0,1-14.9,17.2q-9.93,6-23.4,6.05a59.52,59.52,0,0,1-23.69-4.87c-3.95-1.72-6.3-2.71-7.07-3a7.93,7.93,0,0,0-2.57-.38c-3.06,0-5.16,1.52-6.31,4.58Z"/><path class="cls-1" d="M273.58,353.64l17.36-19a77.36,77.36,0,0,0,7.15-8.94,11,11,0,0,0,1.81-5.87c0-2.7-1.4-4.58-4.22-5.65a24.28,24.28,0,0,0-6.82-1V311h36.77v2.1q-6.94,0-11.24,2.37t-11.24,9.86l-3.82,4.3-10.39,11.17,24.61,27.7c2,2.23,3.37,3.67,4,4.3l4.29,4.4q5.16,5.11,7.45,7a33,33,0,0,0,5.43,3.61,24.76,24.76,0,0,0,9.35,2.37v2h-44.8v-2A15,15,0,0,0,305,388.9a4.43,4.43,0,0,0,2.29-4q0-2.75-2.77-5.77l-2-2.3L279.4,351.26l-5.82,6.38v7l.09,7.24a42.07,42.07,0,0,0,.77,9.48,9.86,9.86,0,0,0,3,5q2.67,2.58,9.84,3.91v2H245v-2q5.73-.76,8.21-2.15a9.78,9.78,0,0,0,4-4.72,20.55,20.55,0,0,0,1.48-6.63q.43-4.43.43-12.83V289a136.87,136.87,0,0,0-.47-13.73,14.88,14.88,0,0,0-2.11-6.48,9.71,9.71,0,0,0-3.91-3.82,17.92,17.92,0,0,0-6.59-1.43v-2.1L273.58,258Z"/><path class="cls-1" d="M424.5,383l1.62.95q-3.44,10-15.76,10a18.4,18.4,0,0,1-11.29-3.34q-3-2.19-6.12-7.64a63,63,0,0,1-9.66,7.54A29.3,29.3,0,0,1,368.84,394q-10.51,0-16.69-5.06T346,375.23A18.61,18.61,0,0,1,351,362a22.48,22.48,0,0,1,6.59-4.72,62.85,62.85,0,0,1,10.8-3.59q8.31-2.1,12.27-3.53a25.48,25.48,0,0,0,6.64-3.44,11.4,11.4,0,0,0,4.2-5.16,23.31,23.31,0,0,0,1.15-8.21q0-11.18-4.2-16.34a13.94,13.94,0,0,0-4.92-3.82,14.47,14.47,0,0,0-6.26-1.43,12.4,12.4,0,0,0-7,2,12.23,12.23,0,0,0-4.59,5.54l-2.38,5.54a6.9,6.9,0,0,1-6.88,4.49,7.5,7.5,0,0,1-5.45-2.15,7.26,7.26,0,0,1-2.19-5.4q0-4.87,6.89-8.21a41.32,41.32,0,0,1,9.23-2.82,55,55,0,0,1,10.76-1.1,53.06,53.06,0,0,1,12.34,1.53,42.57,42.57,0,0,1,10.72,3.91q6.21,3.54,7.75,9.17a42.2,42.2,0,0,1,.76,9.65v35.34q0,9,.77,12.23,1.62,6.78,7.83,6.78a8.67,8.67,0,0,0,4.63-1.05A16.43,16.43,0,0,0,424.5,383Zm-31.62-37.64a63.65,63.65,0,0,1-11.33,7.55,100.39,100.39,0,0,0-9.62,5.63,25.6,25.6,0,0,0-4.85,4.59A19.88,19.88,0,0,0,362.6,376a15.55,15.55,0,0,0,3.48,10.41,11,11,0,0,0,8.8,4.1,15,15,0,0,0,8.81-2.91,18,18,0,0,0,6.24-7.78q3-6.4,2.95-18.53Zm-13.66-78.51a15.64,15.64,0,1,1-11.08,4.58A15.11,15.11,0,0,1,379.22,266.82Zm0,4.87a10.25,10.25,0,0,0-7.59,3.15A10.71,10.71,0,0,0,386.77,290a10.72,10.72,0,0,0-7.55-18.29Z"/><path class="cls-1" d="M427.27,261.47,454.78,258V364.55l.09,7.26a42.17,42.17,0,0,0,.77,9.49,9.85,9.85,0,0,0,3,5q2.67,2.58,9.84,3.92v2H426.22v-2c3.82-.51,6.55-1.23,8.21-2.15a9.78,9.78,0,0,0,4-4.72,20.55,20.55,0,0,0,1.48-6.63q.43-4.43.43-12.83V289a136.87,136.87,0,0,0-.47-13.73,14.88,14.88,0,0,0-2.11-6.48,9.71,9.71,0,0,0-3.91-3.82,17.92,17.92,0,0,0-6.59-1.43Z"/><path d="M424.19,382.82l1.63.95q-3.45,10-15.76,10a18.38,18.38,0,0,1-11.29-3.34q-3-2.2-6.12-7.64a63.4,63.4,0,0,1-9.67,7.54,29.37,29.37,0,0,1-14.44,3.44q-10.53,0-16.69-5.06t-6.17-13.66a18.55,18.55,0,0,1,5.06-13.28,22.7,22.7,0,0,1,6.59-4.73,63.7,63.7,0,0,1,10.79-3.58q8.31-2.1,12.28-3.53a25.64,25.64,0,0,0,6.64-3.44,11.63,11.63,0,0,0,4.2-5.16,23.58,23.58,0,0,0,1.14-8.21q0-11.17-4.2-16.34a13.76,13.76,0,0,0-4.92-3.82,14.43,14.43,0,0,0-6.25-1.43,12.48,12.48,0,0,0-7,2,12.31,12.31,0,0,0-4.58,5.54l-2.39,5.54a6.88,6.88,0,0,1-6.88,4.49,7.44,7.44,0,0,1-5.44-2.15,7.21,7.21,0,0,1-2.2-5.39q0-4.87,6.89-8.22a42,42,0,0,1,9.23-2.81,54.37,54.37,0,0,1,10.76-1.1A53.2,53.2,0,0,1,387.77,311a42.24,42.24,0,0,1,10.71,3.91q6.22,3.54,7.75,9.17a42.06,42.06,0,0,1,.77,9.65v35.34q0,9,.76,12.23,1.62,6.78,7.84,6.78a8.7,8.7,0,0,0,4.63-1.05A16.6,16.6,0,0,0,424.19,382.82Zm-31.61-37.64a63.91,63.91,0,0,1-11.34,7.55,98.6,98.6,0,0,0-9.61,5.63,25.65,25.65,0,0,0-4.86,4.59,19.92,19.92,0,0,0-4.47,12.89,15.51,15.51,0,0,0,3.47,10.41,11,11,0,0,0,8.81,4.11,15.08,15.08,0,0,0,8.81-2.91,17.92,17.92,0,0,0,6.23-7.79q3-6.39,3-18.53Zm-13.66-78.52a15.67,15.67,0,1,1-11.08,4.59A15.09,15.09,0,0,1,378.92,266.66Zm0,4.88a10.26,10.26,0,0,0-7.6,3.15,10.71,10.71,0,0,0,15.14,15.14,10.72,10.72,0,0,0-7.54-18.29Z"/><path d="M427,261.32l27.51-3.44V364.4l.1,7.25a42.35,42.35,0,0,0,.76,9.5,9.92,9.92,0,0,0,3,5q2.68,2.58,9.84,3.92v2H425.91v-2q5.73-.76,8.22-2.15a9.88,9.88,0,0,0,4-4.72,20.82,20.82,0,0,0,1.48-6.63q.44-4.44.43-12.83V288.88a133,133,0,0,0-.48-13.73,15.1,15.1,0,0,0-2.1-6.49,9.7,9.7,0,0,0-3.92-3.81,17.62,17.62,0,0,0-6.59-1.43Z"/><path id="a-section" class="cls-1" d="M381.85,309.88l-1.1,2.25c-1.64-.35-6.31-1.12-10.22,1.53a23.36,23.36,0,0,0-5,6.42c-2.05,3.83-1.37,4.88-3.09,6.65a8.55,8.55,0,0,1-8.71,2.3,8.08,8.08,0,0,1-5.16-6.54c-.52-4.33,3.1-7.49,4.24-8.48,3.41-3,7.48-3.39,15.59-4.25a60.26,60.26,0,0,1,7.54-.31A58.66,58.66,0,0,1,381.85,309.88Z"/><path id="punto" class="cls-1" d="M393.8,276.29A16,16,0,1,0,372,296.93c8,3.94,15.73-1.18,16.05-1.39Z"/><ellipse cx="379.59" cy="282.15" rx="10.47" ry="10.38"/><path id="k" d="M387.84,295.55q3-9.53,6.08-19a15.61,15.61,0,0,1-6.08,19Z"/><path id="k1" d="M301.24,392.2l22.17-13.42a46.35,46.35,0,0,0,5.35,4.93,28.13,28.13,0,0,0,8.86,5.28,22.06,22.06,0,0,0,6.42,1.14l.08,2.22Z"/></svg>