<svg xmlns="http://www.w3.org/2000/svg" xmlns:xlink="http://www.w3.org/1999/xlink" version="1.1" x="0px" y="0px" viewBox="0 0 50 50" enable-background="new 0 0 0 0" xml:space="preserve"><g><path d="M1.0399578,21.0874023c4.2138672,9.5576172,12.0478516,14.3051758,23.9482422,14.5141602   c2.3985901-0.6018715,17.1153011,1.0273438,23.9658222-14.5141602c0.1406174-0.3160172-0.0960388-0.6895962-0.4394531-0.7011719   c-0.0693359-0.0024414-6.9765625-0.2827148-12.640625-4.2617188c-1.6308594-1.1455078-3.3359375-1.7260742-5.0683613-1.7260742   c-2.1132813,0-3.8349609,0.8637695-4.9072266,1.5888672c-1.7129993,1.1567497-2.5537148-1.5888672-6.7099609-1.5888672   c-1.7324219,0-3.437499,0.5805664-5.0683584,1.7260742c-7.1152143,4.9984684-12.9751377,3.5437012-13.1140137,4.701416   C0.9985309,20.8868141,1.0251302,21.054081,1.0399578,21.0874023z M24.9969883,34.6015625   C14.1642866,34.4091797,6.8472695,30.321106,2.6648357,22.1455688c4.7946167,2.4960938,10.7969971,2.5288696,15.7130117,2.5487671   c6.5428486,0.0268269,5.8969345,0.4198723,7.4345703,0.2255859c5.401125-0.6900539,14.6389332,0.8062477,21.5167255-2.774353   C43.1467705,30.321106,35.8306084,34.4091797,24.9969883,34.6015625z M14.6942549,16.9428711   c1.4589834-1.0249023,2.9716787-1.5444336,4.4941397-1.5444336c3.8977451,0,4.8740997,3.037693,7.2705078,1.4169922   c0.9560547-0.6464844,2.4863281-1.4169922,4.3466797-1.4169922c1.5224628,0,3.0351582,0.5195313,4.4941425,1.5444336   c4.2939453,3.0165405,9.1532593,3.9887085,11.6002808,4.2991943c-6.6134529,3.4597626-15.7657528,1.9912472-21.2145405,2.6856689   c-0.4570313,0.0585938-0.9199219,0.0585938-1.3769531,0c-5.488903-0.6995354-14.5874901,0.7812061-21.2145386-2.6856689   C5.5409951,20.9315796,10.4003096,19.9594116,14.6942549,16.9428711z"/></g></svg>