<svg id="Layer_1" data-name="Layer 1" xmlns="http://www.w3.org/2000/svg" width="240" height="420" viewBox="0 0 240 420"><defs><style>.cls-1{fill:#f9efe6;}.cls-2{fill:#aa3e2a;}</style></defs><path class="cls-1" d="M122.09,404.44a315.36,315.36,0,0,1-44.18-2.16C66.1,401,62.85,396.92,64,385.1c2.92-29,2-57.92-.17-86.9-1.69-22-8.72-43-11.65-64.74-3.58-26.69-7-53.39-5.21-80.42.16-2.43.07-4.52-1.73-6.51-5-5.5-4.74-12-2.57-18.45a116.08,116.08,0,0,0,5.46-23.61C49.57,92.54,56,84.36,66.77,79.2c13.69-6.59,28.38-8.93,43.27-10a214.76,214.76,0,0,1,51.56,2.6,73.13,73.13,0,0,1,21.67,7.9A24.78,24.78,0,0,1,197,99.62c.91,8.3,2.47,16.81,1.5,25-1.47,12.29-.1,24.38-.11,36.55,0,36.45-4.88,72.31-12.72,108-8.14,37-8.4,74.69-5.33,112.37,1.33,16.24-1.89,20.3-17.83,21.42C148.9,403.83,135.35,405,122.09,404.44Zm-51.56-67.7c.5,9.68.06,23-.86,36.31-.27,3.8-.16,8.75,4.87,7.79,11-2.1,21,2.45,31.57,3a410,410,0,0,0,61.07-1.94c7.8-.8,9-3.63,8.66-10.79-1.56-35.84-1.14-71.66,6.6-106.9,6.82-31,9.3-62.48,11.19-94.06.46-7.55-2.48-10.83-9.8-12-14.22-2.25-28.53-3.38-42.86-4.52-5.3-.42-8,1.58-9.9,6.56-4.68,12-6.93,24.59-9.57,37.11-3,14-7.14,27.5-21.5,34.53-8.16,4-15.18,1.76-19.62-6.18-3.44-6.17-3.92-12.85-4-19.72-.23-13.28,1.27-26.56-2.07-39.8-2-8-7.5-7.67-13.2-7.34s-8.83,2.76-8.7,9.42c.56,27.76,2.64,55.42,8.37,82.55S69.64,305.34,70.53,336.74Z"/><path class="cls-2" d="M70.53,336.74c-.89-31.4-4-58.79-9.79-86s-7.81-54.79-8.37-82.55c-.13-6.66,3.12-9.1,8.7-9.42s11.17-.69,13.2,7.34c3.34,13.24,1.84,26.52,2.07,39.8.12,6.87.6,13.55,4,19.72,4.44,7.94,11.46,10.18,19.62,6.18,14.36-7,18.55-20.52,21.5-34.53,2.64-12.52,4.89-25.08,9.57-37.11,1.94-5,4.6-7,9.9-6.56,14.33,1.14,28.64,2.27,42.86,4.52,7.32,1.16,10.26,4.44,9.8,12-1.89,31.58-4.37,63-11.19,94.06-7.74,35.24-8.16,71.06-6.6,106.9.31,7.16-.86,10-8.66,10.79a410,410,0,0,1-61.07,1.94c-10.52-.5-20.58-5.05-31.57-3-5,1-5.14-4-4.87-7.79C70.59,359.74,71,346.42,70.53,336.74Zm25.55,6.49c0-11.19.09-19.27-.07-27.34,0-2-.77-4.56-3.39-4.44-2.09.1-2.64,2.39-2.8,4.2-1.34,16.11-3.31,32.18-2.54,48.39.1,2.2.12,5.34,3,5.68,3.56.42,4-3.05,4.2-5.44C95.28,356.25,95.72,348.17,96.08,343.23Z"/><path class="cls-1" d="M95.77,343.23c-.36,4.94-.8,13-1.62,21-.25,2.39-.65,5.86-4.21,5.44-2.85-.34-2.86-3.48-3-5.68-.76-16.21,1.2-32.28,2.55-48.39.15-1.81.7-4.1,2.79-4.2,2.62-.12,3.35,2.41,3.39,4.44C95.86,324,95.77,332,95.77,343.23Z"/></svg>