<svg id="Layer_1" data-name="Layer 1" xmlns="http://www.w3.org/2000/svg" width="240" height="420" viewBox="0 0 240 420"><defs><style>.cls-1{fill:#f9efe6;}.cls-2{fill:#7f3931;}</style></defs><path class="cls-1" d="M120.36,404.57c-14-.13-27.94-.67-41.4-5-3.13-1-7.22-1.82-7.35-6.05-.11-3.59,3.33-5.1,6-6.63,8.29-4.69,17.34-7.07,26.67-8.65,2.81-.48,6.55-.09,6.64-4.88.08-3.75-.43-6.68-4.62-7.94a9.46,9.46,0,0,1-6-5.81C94,343.19,85,328.07,80.82,310.48,63.41,238,58.49,164.24,57.33,90.05c0-3.37,1-7-1-10C50.82,71.83,55,66.55,61.64,62.39c4.82-3,9.24-6,12.74-10.8,5.06-7,13.49-8.63,22.39-5,6.68,2.72,12.63,1.78,18.6-1.65,14.18-8.15,28.7-6.73,40.89,4.28a12,12,0,0,0,7.59,3.17,32.72,32.72,0,0,1,15.93,5.68c4.87,3.36,8.07,8.23,5.63,13.89-3.35,7.74-2.63,15.63-2.73,23.5-.77,60.19-4.78,120.11-16,179.36a559.59,559.59,0,0,1-14.93,59.57c-1,3.26-2.06,6.48-5.05,8.67a13.43,13.43,0,0,0-5.85,11.62c0,4.24-2.52,7.7-6.08,9.76-3.93,2.28-4.51,5.48-4.06,9.4.58,5.11,5,4,8,4.57,9.54,1.91,19,3.85,27.1,9.69,2.07,1.48,4.57,2.91,4.42,5.86-.19,3.54-3.37,4.38-6,5.26C150,404,135.21,404.53,120.36,404.57ZM75.73,172.42h-.3q0-19.63,0-39.29c0-2.53.39-5.54-2.64-6.57s-6.39-1.19-9,.82c-3.23,2.47-1.92,6.33-1.76,9.6,1.74,35.56,4.6,71.05,9.6,106.3,4.19,29.52,9.91,58.77,18.84,87.32,1.61,5.16,4.46,8.51,9.46,10a69.36,69.36,0,0,0,41.76-.1c3.46-1.11,6.67-3.41,7.85-7.34,2.37-7.89,5.19-15.69,6.9-23.73,6.23-29.21,11.82-58.53,15.23-88.25,3.31-28.88,5.34-57.83,6.71-86.85.24-5.1-1.37-8.49-7-8.39-21.65.38-43.13-3.86-64.84-2.35-13,.91-13.54,1.36-13.73,14.59C92,195.68,97.19,253,98.37,310.44c0,2,.62,4.45-1.41,5.39C94,317.18,93.29,314,92,312.38a11.73,11.73,0,0,1-1.72-3.86c-5.47-18-8.22-36.7-10.49-55.12C76.51,226.65,76.91,199.44,75.73,172.42Z"/><path class="cls-2" d="M75.73,172.42c1.18,27,.78,54.23,4.08,81,2.27,18.42,5,37.13,10.49,55.12A11.73,11.73,0,0,0,92,312.38c1.27,1.62,2,4.8,4.94,3.45,2-.94,1.45-3.4,1.41-5.39C97.19,253,92,195.68,92.8,138.17c.19-13.23.69-13.68,13.73-14.59,21.71-1.51,43.19,2.73,64.84,2.35,5.61-.1,7.22,3.29,7,8.39-1.37,29-3.4,58-6.71,86.85-3.41,29.72-9,59-15.23,88.25-1.71,8-4.53,15.84-6.9,23.73-1.18,3.93-4.39,6.23-7.85,7.34a69.36,69.36,0,0,1-41.76.1c-5-1.48-7.85-4.83-9.46-10-8.93-28.55-14.65-57.8-18.84-87.32C66.6,208,63.74,172.54,62,137c-.16-3.27-1.47-7.13,1.76-9.6,2.62-2,6-1.85,9-.82s2.64,4,2.64,6.57q0,19.65,0,39.29Z"/></svg>