<svg id="Layer_1" data-name="Layer 1" xmlns="http://www.w3.org/2000/svg" width="240" height="420" viewBox="0 0 240 420"><defs><style>.cls-1{fill:#f9efe6;}.cls-2{fill:#34101c;}</style></defs><ellipse class="cls-1" cx="50.46" cy="183.41" rx="11.4" ry="14.81"/><path class="cls-1" d="M119.25,404.52c-16.15,0-32.3-.09-48.45,0A51,51,0,0,1,52.27,401c-5.53-2.08-7.69-4.86-1.65-9.43A88.92,88.92,0,0,0,67.21,375.2c11.13-14.3,14.22-29.7,7.13-46.9-10.07-24.48-23.5-47.42-32.73-72.3-10-27-15.69-54.6-15.14-83.53.51-26.5.34-53,5.6-79.16,3-15.14,23.11-25.66,37.69-20.61,14.35,5,28.77,9.31,44.55,8.81,26.79-.85,53.64.08,80.46-.39,7.61-.14,10.72,2.55,12.25,9.66,3.16,14.7,4.29,29.64,5.45,44.52,4.25,54.49-3.46,106.76-29.73,155.52-6.14,11.38-11.16,23.36-16.66,35.09-9.18,19.59-5,37,9,52.58a120.69,120.69,0,0,0,13.81,13c5.69,4.63,4,7.33-1.76,9.47a52.49,52.49,0,0,1-18.53,3.58C152.13,404.44,135.69,404.52,119.25,404.52Zm-.66-268.34v.26c-17.32,0-34.63.22-51.94-.12-7-.13-10.22,2-9.57,9.37a124.34,124.34,0,0,1-.06,14.7c-.07,2.5-1.15,4.81-3.92,4.83s-3.66-2.44-3.72-4.91c-.13-5.48-.43-11-.15-16.44.31-6.1-2.87-7.24-8-7s-10.15-.3-10,7.23c.18,7.2.15,14.43-.11,21.63A219.13,219.13,0,0,0,40.91,239c7.8,25.19,19.66,48.54,31.07,72.12,8.57,17.69,16.48,22.13,35.74,19.26,9.83-1.46,19.65-1.14,29.34-.18,14.71,1.46,21.57-1.08,28-14,10.24-20.63,20.59-41.2,29-62.72,13.82-35.46,16.28-72.28,14.46-109.73-.23-4.74-2.25-8.73-7.19-7.35-13.29,3.71-26.29-.78-39.44-.34C147.45,136.55,133,136.18,118.59,136.18Z"/><path class="cls-2" d="M118.59,136.18c14.42,0,28.86.37,43.27-.11,13.15-.44,26.15,4.05,39.44.34,4.94-1.38,7,2.61,7.19,7.35,1.82,37.45-.64,74.27-14.46,109.73-8.39,21.52-18.74,42.09-29,62.72-6.42,12.93-13.28,15.47-28,14-9.69-1-19.51-1.28-29.34.18-19.26,2.87-27.17-1.57-35.74-19.26C60.57,287.56,48.71,264.21,40.91,239a219.13,219.13,0,0,1-9.79-73.28c.26-7.2.29-14.43.11-21.63-.18-7.53,4.9-7,10-7.23s8.34.89,8,7c-.28,5.46,0,11,.15,16.44.06,2.47.82,4.92,3.72,4.91S57,162.89,57,160.39a124.34,124.34,0,0,0,.06-14.7c-.65-7.37,2.6-9.5,9.57-9.37,17.31.34,34.62.12,51.94.12Zm-61.38,46.1c-.36-2.31-.21-5.92-4.29-5.63-3.88.28-3.65,3.87-3.7,6.71s0,6.37,4.14,6.06C57.24,189.14,57.08,185.7,57.21,182.28Z"/></svg>