<svg xmlns="http://www.w3.org/2000/svg" xmlns:xlink="http://www.w3.org/1999/xlink" version="1.1" x="0px" y="0px" viewBox="0 0 100 100" enable-background="new 0 0 100 100" xml:space="preserve"><path d="M49.748,95.894c-6.241,0-12.67-2.918-17.195-7.805c-3.599-3.886-7.71-10.827-6.864-21.83  C27.749,39.479,49.524,5.74,49.744,5.402C49.929,5.118,50.244,5,50.583,5c0.001,0,0.002,0,0.003,0c0.34,0,0.656,0.122,0.839,0.407  C52.336,6.829,73.75,40.5,75.479,66.296c0.711,10.614-3.433,17.419-7.033,21.271C63.561,92.789,56.571,95.894,49.748,95.894z   M50.578,7.782c-4.022,6.508-21.105,35.357-22.896,58.631c-0.791,10.281,3.01,16.724,6.338,20.316  c4.153,4.486,10.033,7.164,15.728,7.164c6.28,0,12.724-2.881,17.236-7.706c3.331-3.563,7.162-9.886,6.498-19.784  C71.979,43.963,54.622,14.396,50.578,7.782z M38.899,80.616c0.42-0.359,0.47-0.99,0.111-1.41  c-4.855-5.684-2.313-16.865-2.287-16.978c0.126-0.538-0.208-1.076-0.745-1.202c-0.542-0.125-1.076,0.208-1.202,0.745  c-0.117,0.498-2.803,12.277,2.713,18.733c0.198,0.231,0.479,0.351,0.761,0.351C38.48,80.855,38.711,80.776,38.899,80.616z   M38.23,54.444c0.786-3.958,2.745-9.032,2.765-9.083c0.199-0.515-0.057-1.094-0.571-1.293c-0.512-0.201-1.093,0.056-1.294,0.57  c-0.083,0.214-2.041,5.285-2.86,9.417c-0.108,0.541,0.244,1.067,0.786,1.175c0.065,0.014,0.131,0.02,0.195,0.02  C37.719,55.25,38.137,54.921,38.23,54.444z"/></svg>