<svg id="Layer_1" data-name="Layer 1" xmlns="http://www.w3.org/2000/svg" width="240" height="420" viewBox="0 0 240 420"><defs><style>.cls-1{fill:#f9efe6;}.cls-2{fill:#d53a08;}</style></defs><path class="cls-1" d="M127,406.81c-19.4,0-35.15.15-50.64-3.39-3.94-.9-8.21-1.11-8.71-6.75-.45-5.13,3.33-6.25,6.67-7.92,7-3.5,14.22-6.74,21.1-10.52,7.63-4.19,12.18-10.61,12.73-19.6,1.42-22.89-2.76-42.67-23.19-57.61-19.69-14.4-25-36.82-24.55-60,.71-41.39,2.41-82.76,3.75-124.13.15-4.67.8-9.33-2.85-13.2a7.18,7.18,0,0,1-1.34-3.17c-4.4-18,11-45.59,28.77-50.65,24.07-6.85,48.52-6.82,72.65-1,23.18,5.64,25.37,19.56,22.65,46.5-.36,3.64-1.54,7.28-1.41,11.08q2.16,65.55,4.3,131.12c.6,17.87-2.66,34.8-12.18,50.19-3.88,6.28-8.57,12.25-15.16,15.45-19,9.22-25.09,47.44-18.13,64.52,2.4,5.89,7.72,9.42,13.18,12.33,5.91,3.15,11.94,6.08,18,8.94,3.89,1.84,7.28,3.76,6.46,9-.75,4.73-4.63,4.55-7.9,5.34C155.4,407.15,139.33,406.63,127,406.81Zm55.42-203.72h-1c0-17.78-.17-35.56.09-53.34.1-6.95-2.89-9.2-9.49-8.9-9.9.43-19.82.34-29.72.42-16.22.12-16.22.1-22.09,14.52-.33.81-.56,1.67-.93,2.46-5.61,12-11.06,14.86-24.16,12.26-4.74-.95-4.76,2.44-4.88,5.16-.29,6.4-.19,12.82-.14,19.23.18,27.76,1.4,55.39,11.76,81.68,1.4,3.55.65,6.9-.4,10.24-.83,2.67-3,4.26-5.3,2.3-5.53-4.76-12.5-7.74-14.16-16.66a343.41,343.41,0,0,1-5.8-58.12c-.34-21.64,2.09-43,3.54-64.53.33-4.88-1-8.54-7.16-8.51s-6.16,4.06-6.29,8.27c-.64,20.11-1.55,40.21-1.79,60.32-.21,18.05-1.34,36.21,2.21,54.08,2.94,14.8,9.76,27.37,23,35.66,41,25.7,90.91-.28,92.6-48.44C182.85,235.17,182.38,219.12,182.38,203.09Z"/><path class="cls-2" d="M182.38,203.09c0,16,.47,32.08-.09,48.1-1.69,48.16-51.56,74.14-92.6,48.44-13.23-8.29-20-20.86-23-35.66-3.55-17.87-2.42-36-2.21-54.08.24-20.11,1.15-40.21,1.79-60.32.13-4.21.2-8.24,6.29-8.27s7.49,3.63,7.16,8.51c-1.45,21.49-3.88,42.89-3.54,64.53A343.41,343.41,0,0,0,82,272.46c1.66,8.92,8.63,11.9,14.16,16.66,2.27,2,4.47.37,5.3-2.3,1-3.34,1.8-6.69.4-10.24-10.36-26.29-11.58-53.92-11.76-81.68,0-6.41-.15-12.83.14-19.23.12-2.72.14-6.11,4.88-5.16,13.1,2.6,18.55-.25,24.16-12.26.37-.79.6-1.65.93-2.46,5.87-14.42,5.87-14.4,22.09-14.52,9.9-.08,19.82,0,29.72-.42,6.6-.3,9.59,2,9.49,8.9-.26,17.78-.09,35.56-.09,53.34Z"/></svg>